<?xml version="1.0" standalone="no"?>
<!DOCTYPE svg PUBLIC "-//W3C//DTD SVG 20010904//EN"
 "http://www.w3.org/TR/2001/REC-SVG-20010904/DTD/svg10.dtd">
<svg version="1.0" xmlns="http://www.w3.org/2000/svg"
 width="512.000000pt" height="512.000000pt" viewBox="0 0 512.000000 512.000000"
 preserveAspectRatio="xMidYMid meet">

<g transform="translate(0.000000,512.000000) scale(0.100000,-0.100000)"
fill="#000000" stroke="none">
<path d="M2327 5110 c-498 -52 -960 -235 -1337 -528 -119 -93 -327 -298 -423
-417 -282 -349 -468 -774 -539 -1230 -31 -201 -31 -549 0 -750 71 -456 257
-881 539 -1230 105 -130 321 -340 448 -436 919 -690 2171 -690 3090 0 127 96
343 306 448 436 362 449 567 1029 567 1605 0 576 -205 1156 -567 1605 -96 119
-304 324 -423 417 -338 263 -763 444 -1193 509 -153 23 -474 33 -610 19z m503
-215 c1088 -127 1938 -977 2065 -2065 151 -1288 -774 -2454 -2065 -2605 -733
-86 -1463 179 -1974 716 -573 602 -783 1452 -559 2259 231 836 937 1491 1793
1665 219 45 514 57 740 30z"/>
<path d="M2870 4335 c-70 -22 -255 -120 -365 -192 -128 -85 -298 -254 -382
-380 -126 -189 -188 -358 -229 -628 -15 -93 -19 -178 -19 -375 0 -282 9 -349
78 -593 28 -97 31 -117 18 -112 -172 68 -879 51 -1074 -26 -66 -26 -158 -90
-196 -136 -95 -115 -72 -286 51 -384 94 -74 243 -135 359 -145 38 -4 69 -10
69 -13 0 -3 -46 -22 -101 -40 -56 -19 -111 -43 -123 -52 -35 -30 2 -23 83 16
40 19 134 51 209 70 149 38 367 64 385 46 7 -7 6 -12 -4 -15 -238 -71 -492
-165 -519 -193 -13 -14 -12 -14 10 -8 14 4 63 23 110 43 47 19 183 67 302 107
120 39 215 74 212 77 -6 7 50 20 186 43 52 9 109 20 127 26 27 9 34 7 57 -16
14 -14 31 -25 39 -25 9 0 17 -15 21 -40 8 -53 42 -75 114 -75 49 0 59 -4 87
-33 29 -28 40 -32 84 -32 29 0 65 7 81 15 28 15 30 14 30 -4 0 -66 195 -48
271 25 27 26 27 26 38 5 18 -33 67 -53 125 -50 47 3 96 -12 96 -29 0 -4 -29
-13 -64 -20 -36 -6 -118 -32 -184 -56 -66 -25 -146 -53 -178 -62 -33 -10 -52
-19 -42 -21 18 -5 166 37 343 97 66 22 144 43 173 47 31 3 64 15 80 27 21 16
37 20 77 18 43 -3 55 0 78 22 15 14 32 46 39 72 11 38 19 50 45 60 39 17 63 9
63 -21 0 -67 45 -115 108 -115 45 0 121 30 140 55 15 21 19 21 39 8 23 -15 39
-15 196 1 75 7 119 35 141 88 31 75 0 138 -69 138 -19 0 -35 1 -35 3 0 2 21
25 48 53 85 88 177 267 217 422 26 99 36 261 25 384 -19 204 -93 370 -219 491
-72 70 -164 122 -234 134 -29 4 -41 12 -48 31 -14 36 -19 160 -24 582 -4 366
-14 483 -44 513 -33 33 -288 -9 -519 -84 -84 -28 -159 -48 -166 -46 -7 3 -21
36 -31 74 -29 110 -55 172 -87 209 -34 38 -35 38 -98 19z m74 -72 c9 -21 28
-81 42 -133 14 -52 33 -111 42 -130 16 -32 20 -35 57 -33 23 1 80 17 127 37
144 60 444 127 501 112 40 -10 52 -138 52 -566 1 -201 4 -395 9 -433 10 -79
34 -117 75 -117 52 0 166 -65 245 -141 96 -90 146 -186 178 -334 29 -136 29
-315 0 -440 -63 -273 -176 -466 -308 -531 -54 -26 -58 -27 -177 -20 -67 4
-133 8 -147 9 -34 3 -38 -26 -6 -41 48 -22 194 -25 296 -7 149 27 180 20 180
-37 0 -21 -11 -41 -34 -64 -46 -46 -67 -45 -59 1 5 30 2 36 -21 47 -23 10 -29
9 -36 -2 -6 -9 -5 -19 0 -24 31 -31 -11 -76 -70 -76 -43 0 -77 22 -82 53 -5
36 -32 26 -46 -17 -15 -45 -32 -60 -87 -76 -83 -23 -121 20 -91 105 14 42 14
46 -2 52 -9 4 -52 -3 -96 -14 -78 -21 -80 -21 -103 -3 -13 10 -37 22 -53 25
-17 4 -30 8 -30 9 0 2 16 37 35 79 56 121 122 305 175 489 55 187 57 198 36
198 -18 0 -27 -24 -86 -231 -50 -177 -112 -337 -190 -489 -48 -92 -45 -106 21
-101 82 6 117 -69 59 -124 -26 -25 -34 -27 -57 -19 -22 7 -28 16 -29 42 -2 34
-28 82 -45 82 -15 0 -23 -30 -10 -43 19 -19 13 -66 -14 -92 -44 -45 -110 -22
-110 37 0 44 -19 45 -43 3 -19 -32 -25 -35 -66 -35 -56 0 -91 36 -82 85 25
147 45 540 37 735 -6 128 -7 135 -27 138 -21 3 -21 3 -27 -355 -7 -416 -17
-506 -62 -553 -96 -100 -256 -87 -189 15 15 23 15 25 -1 31 -11 4 -27 -4 -48
-24 -37 -35 -88 -62 -116 -62 -11 0 -32 11 -48 24 -24 20 -25 26 -14 40 7 9
19 16 26 16 7 0 18 6 24 14 10 11 8 16 -6 24 -13 8 -32 3 -75 -19 -67 -34
-110 -37 -138 -9 -29 29 -25 66 9 101 31 30 46 36 56 19 8 -13 42 -13 50 0 4
6 -19 38 -49 72 -57 63 -107 150 -196 348 -140 308 -187 551 -177 914 10 411
78 655 251 911 89 132 302 328 461 425 88 53 262 140 280 140 7 0 19 -17 29
-37z m-1161 -2214 c40 -5 86 -14 102 -19 17 -5 49 -14 73 -20 l43 -11 87 -177
c48 -97 88 -180 90 -183 1 -4 -9 -10 -23 -13 -37 -9 -75 -50 -75 -80 0 -22 -7
-26 -67 -40 -90 -20 -398 -62 -548 -75 -361 -32 -530 -2 -682 117 -84 67 -115
169 -79 256 21 50 93 113 171 151 114 55 239 79 525 98 113 8 318 6 383 -4z
m439 -476 c26 -24 22 -45 -15 -81 -36 -35 -59 -35 -77 -1 -36 66 37 132 92 82z"/>
<path d="M2529 3970 c-235 -30 -387 -258 -320 -478 48 -158 204 -255 411 -256
101 0 167 23 248 84 44 33 52 37 52 21 0 -37 -11 -53 -27 -40 -22 19 -39 -4
-27 -38 13 -39 68 -65 123 -60 51 6 85 32 61 47 -8 6 -32 8 -52 4 l-38 -6 0
41 c0 60 24 69 72 25 151 -136 401 -129 532 17 60 67 88 143 89 239 1 66 -3
83 -34 145 -43 87 -85 129 -168 169 -59 28 -75 31 -156 30 -146 -1 -245 -52
-305 -157 l-28 -50 -11 40 c-23 84 -118 177 -211 207 -59 19 -141 25 -211 16z
m161 -51 c186 -47 291 -263 220 -452 -28 -76 -59 -110 -128 -144 -52 -26 -66
-28 -167 -27 -124 0 -192 20 -268 78 -80 61 -118 172 -97 288 15 81 38 125 93
175 98 90 210 117 347 82z m748 -83 c68 -35 135 -123 153 -202 15 -68 0 -169
-37 -231 -30 -52 -113 -105 -201 -129 -64 -17 -66 -17 -141 5 -104 30 -173 77
-202 135 -25 54 -32 183 -12 252 19 67 86 142 156 176 56 27 68 29 146 25 68
-3 96 -9 138 -31z"/>
<path d="M2595 3539 c-5 -16 -2 -26 11 -36 22 -16 26 -16 50 1 15 12 17 18 8
33 -17 28 -61 29 -69 2z"/>
<path d="M3087 3504 c-13 -13 -7 -52 8 -58 27 -10 46 5 43 33 -3 26 -35 41
-51 25z"/>
<path d="M1915 1370 c-93 -34 -440 -177 -498 -205 -32 -15 -56 -29 -53 -32 7
-7 72 15 136 47 30 15 154 64 275 110 121 46 224 87 230 92 17 15 -39 8 -90
-12z"/>
<path d="M1955 1222 c-192 -89 -218 -102 -212 -108 4 -5 151 59 307 135 165
80 94 59 -95 -27z"/>
<path d="M2220 1279 c0 -5 5 -7 10 -4 6 3 10 8 10 11 0 2 -4 4 -10 4 -5 0 -10
-5 -10 -11z"/>
<path d="M3745 1229 c-60 -23 -157 -57 -215 -77 -58 -19 -107 -37 -109 -39
-28 -21 149 33 394 121 65 23 90 36 70 35 -16 0 -79 -18 -140 -40z"/>
<path d="M2195 1214 c-174 -64 -348 -136 -360 -147 -6 -6 -1 -7 15 -2 30 9
333 122 440 164 121 48 39 35 -95 -15z"/>
<path d="M3412 1202 c-57 -20 -99 -38 -93 -40 10 -3 183 52 210 68 35 20 -15
8 -117 -28z"/>
<path d="M2820 1216 c-150 -43 -237 -70 -288 -91 -80 -34 -39 -31 55 4 43 15
119 38 170 51 50 12 100 28 110 36 22 16 11 16 -47 0z"/>
<path d="M2420 1170 c-74 -28 -187 -67 -250 -87 -63 -19 -110 -38 -104 -40 12
-4 400 117 470 147 44 19 56 30 32 30 -7 -1 -74 -23 -148 -50z"/>
</g>
</svg>
