<?xml version="1.0" standalone="no"?>
<!DOCTYPE svg PUBLIC "-//W3C//DTD SVG 20010904//EN"
 "http://www.w3.org/TR/2001/REC-SVG-20010904/DTD/svg10.dtd">
<svg version="1.0" xmlns="http://www.w3.org/2000/svg"
 width="900.000000pt" height="520.000000pt" viewBox="0 0 900.000000 520.000000"
 preserveAspectRatio="xMidYMid meet">

<g transform="translate(0.000000,520.000000) scale(0.100000,-0.100000)"
fill="#000000" stroke="none">
<path d="M7157 2380 c-6 -17 -17 -28 -23 -26 -11 4 -36 -40 -41 -73 -1 -7 -13
-25 -27 -40 -13 -14 -33 -49 -43 -76 -22 -58 -46 -90 -87 -116 -27 -16 -28
-19 -10 -24 10 -4 27 -11 36 -16 26 -14 28 -12 28 24 0 23 8 40 22 53 l22 19
-16 -26 c-9 -15 -14 -30 -10 -34 8 -8 9 -12 12 -62 l2 -38 14 33 c16 38 31 41
44 10 8 -22 9 -21 10 7 2 77 68 339 95 381 8 12 11 24 8 28 -13 13 -25 5 -36
-24z m-7 -48 c0 -5 -7 -17 -15 -28 -13 -17 -14 -17 -15 -1 0 9 5 17 11 17 5 0
7 5 4 10 -3 6 -1 10 4 10 6 0 11 -4 11 -8z"/>
<path d="M3263 2135 c0 -44 2 -61 4 -37 2 23 2 59 0 80 -2 20 -4 1 -4 -43z"/>
<path d="M4270 2190 c-9 -6 -10 -10 -3 -10 6 0 15 5 18 10 8 12 4 12 -15 0z"/>
<path d="M5992 2174 c-10 -12 -10 -14 2 -14 17 0 30 16 19 23 -5 3 -14 -1 -21
-9z"/>
<path d="M6030 2176 c0 -2 9 -6 20 -9 11 -3 20 -1 20 4 0 5 -9 9 -20 9 -11 0
-20 -2 -20 -4z"/>
<path d="M4230 2155 c-7 -8 -9 -15 -6 -15 4 0 14 7 22 15 9 8 11 15 6 15 -5 0
-15 -7 -22 -15z"/>
<path d="M6094 2157 c10 -7 30 -24 44 -39 14 -16 32 -28 39 -28 8 0 11 -4 8
-10 -3 -6 -22 1 -45 15 -22 14 -44 25 -49 25 -5 0 -17 7 -25 16 -9 8 -24 14
-34 12 -13 -3 -9 -9 19 -26 40 -24 129 -126 185 -209 19 -29 40 -53 47 -53 6
0 27 -16 47 -35 33 -33 37 -34 57 -20 17 12 23 28 25 68 l3 52 12 -40 c13 -42
70 -127 60 -90 -15 57 -21 72 -39 98 -17 23 -18 30 -7 44 13 14 8 15 -44 11
-37 -3 -57 -1 -57 6 0 6 -23 26 -51 45 -27 19 -47 36 -45 38 9 9 45 -8 75 -37
33 -32 25 -31 243 -34 47 -1 90 -4 94 -9 4 -4 -2 -7 -14 -7 -12 0 -22 -4 -22
-10 0 -9 13 -14 31 -12 3 1 21 -15 39 -33 19 -19 44 -35 55 -35 14 0 26 -10
33 -25 15 -32 32 -32 32 0 0 14 11 47 25 73 23 43 37 106 16 74 -7 -11 -9 -11
-14 2 -4 11 -1 16 12 16 10 0 24 7 31 15 10 13 9 15 -9 15 -11 0 -21 -4 -21
-8 0 -5 -30 -10 -67 -12 -38 -1 -76 -3 -85 -4 -9 0 -15 -3 -13 -7 7 -10 -92
-16 -214 -13 -103 3 -117 6 -140 27 -42 37 -78 57 -108 57 -25 0 -26 1 -8 14
18 13 17 14 -16 21 -18 4 -43 18 -54 30 -11 12 -31 25 -45 28 -22 5 -23 4 -6
-6z m664 -178 c17 -1 10 -4 -18 -9 -49 -8 -55 -7 -45 10 4 6 14 9 22 6 8 -3
27 -7 41 -7z m-398 -59 c0 -5 -5 -10 -11 -10 -5 0 -7 5 -4 10 3 6 8 10 11 10
2 0 4 -4 4 -10z"/>
<path d="M4179 2103 l-24 -28 30 25 c17 14 32 26 34 28 2 1 0 2 -6 2 -5 0 -20
-12 -34 -27z"/>
<path d="M7342 2060 c0 -25 3 -70 8 -100 l7 -55 1 75 c0 41 -4 86 -8 100 -7
20 -8 17 -8 -20z"/>
<path d="M3688 2083 c7 -3 16 -2 19 1 4 3 -2 6 -13 5 -11 0 -14 -3 -6 -6z"/>
<path d="M3735 2080 c3 -5 11 -10 16 -10 6 0 7 5 4 10 -3 6 -11 10 -16 10 -6
0 -7 -4 -4 -10z"/>
<path d="M3848 2063 c7 -3 16 -2 19 1 4 3 -2 6 -13 5 -11 0 -14 -3 -6 -6z"/>
<path d="M4760 2014 c0 -8 32 -33 42 -34 4 0 0 9 -9 20 -17 20 -33 26 -33 14z"/>
<path d="M4595 1942 c-4 -29 -5 -56 -2 -59 7 -7 20 82 15 99 -3 7 -8 -11 -13
-40z"/>
<path d="M4756 1971 c-4 -5 -3 -11 2 -13 4 -1 38 -52 76 -113 38 -60 81 -122
94 -137 28 -31 25 -46 -6 -29 -28 15 -65 14 -60 -1 6 -18 79 -58 106 -58 32 0
30 52 -3 92 -30 36 -31 48 -5 48 14 0 18 5 13 16 -4 12 -14 14 -39 9 -31 -5
-35 -3 -59 35 -14 22 -35 60 -47 83 -12 23 -26 44 -30 45 -5 2 -15 10 -23 18
-7 8 -16 10 -19 5z"/>
<path d="M4820 1962 c0 -12 19 -26 26 -19 2 2 -2 10 -11 17 -9 8 -15 8 -15 2z"/>
<path d="M5931 1934 c-13 -13 -27 -24 -31 -24 -4 0 -10 -6 -13 -14 -7 -19 60
24 68 43 9 23 1 21 -24 -5z"/>
<path d="M6505 1940 c-3 -5 1 -10 10 -10 9 0 14 -4 11 -9 -7 -11 11 -26 42
-36 21 -6 23 -4 21 17 -2 12 0 29 4 36 6 9 -3 12 -37 12 -25 0 -48 -4 -51 -10z"/>
<path d="M3270 1897 c-22 -51 -22 -53 -5 -32 26 31 36 53 27 59 -4 3 -14 -10
-22 -27z"/>
<path d="M4870 1921 c0 -5 7 -14 15 -21 16 -14 18 -10 9 14 -6 17 -24 22 -24
7z"/>
<path d="M4742 1895 c0 -16 2 -22 5 -12 2 9 2 23 0 30 -3 6 -5 -1 -5 -18z"/>
<path d="M4567 1808 c-29 -113 -30 -116 -14 -82 16 33 40 135 34 141 -2 2 -11
-25 -20 -59z"/>
<path d="M5840 1855 c-19 -23 -8 -26 19 -4 16 13 18 19 8 19 -8 0 -20 -7 -27
-15z"/>
<path d="M4940 1845 c7 -9 15 -13 17 -11 7 7 -7 26 -19 26 -6 0 -6 -6 2 -15z"/>
<path d="M6950 1842 c0 -10 -7 -28 -16 -40 -11 -16 -13 -34 -8 -70 3 -26 9
-51 12 -56 3 -5 16 28 29 73 19 64 21 86 12 97 -16 19 -29 18 -29 -4z"/>
<path d="M3223 1818 c-18 -23 -34 -58 -26 -58 4 0 16 16 25 35 18 36 18 45 1
23z"/>
<path d="M6670 1801 c0 -20 8 -34 25 -45 13 -9 35 -34 47 -56 27 -46 41 -52
32 -12 -9 38 -29 74 -60 111 -32 39 -44 39 -44 2z"/>
<path d="M4970 1816 c0 -1 20 -23 44 -49 42 -46 44 -47 89 -41 54 8 53 24 -2
24 -28 0 -44 7 -65 29 -22 23 -66 48 -66 37z"/>
<path d="M5886 1768 c-20 -29 -56 -77 -81 -106 -51 -60 -57 -82 -21 -82 35 0
56 10 56 26 0 12 -4 12 -20 4 -30 -16 -24 -1 28 70 42 57 88 140 78 140 -2 0
-20 -24 -40 -52z"/>
<path d="M5781 1801 c-7 -5 -12 -14 -9 -21 2 -7 10 -4 22 9 19 21 12 28 -13
12z"/>
<path d="M6018 1693 c-2 -65 0 -122 4 -128 4 -5 8 48 8 118 0 70 -2 127 -4
127 -2 0 -6 -53 -8 -117z"/>
<path d="M7065 1758 c16 -92 45 -141 53 -88 3 20 -42 130 -53 130 -4 0 -4 -19
0 -42z"/>
<path d="M7400 1790 c0 -5 5 -10 11 -10 5 0 7 5 4 10 -3 6 -8 10 -11 10 -2 0
-4 -4 -4 -10z"/>
<path d="M6580 1710 c0 -62 22 -123 54 -149 14 -11 16 -11 16 6 0 10 -4 23 -9
29 -5 5 -14 42 -20 83 -12 79 -17 91 -32 91 -5 0 -9 -27 -9 -60z"/>
<path d="M5704 1729 c-32 -36 -119 -69 -152 -59 -15 5 -61 14 -102 20 -41 6
-90 13 -107 17 -35 6 -41 -4 -23 -38 6 -10 21 -19 34 -19 13 0 37 -7 52 -15
16 -8 46 -15 68 -15 35 0 38 -2 31 -22 -13 -39 -18 -151 -6 -144 8 6 18 50 26
121 1 11 3 23 4 28 0 4 11 7 24 7 28 0 41 9 56 38 7 12 21 22 34 22 24 1 119
80 95 80 -8 0 -23 -10 -34 -21z m-204 -69 c0 -5 -11 -10 -24 -10 -14 0 -28 5
-31 10 -4 6 7 10 24 10 17 0 31 -4 31 -10z"/>
<path d="M7450 1744 c0 -3 7 -12 15 -20 16 -17 18 -14 9 10 -6 15 -24 23 -24
10z"/>
<path d="M3375 1711 c-43 -18 -60 -54 -72 -147 -4 -34 0 -46 22 -72 15 -18 37
-37 49 -43 15 -9 13 -3 -11 22 -46 49 -54 78 -40 135 16 64 41 73 32 11 -5
-31 -2 -53 8 -73 21 -41 73 -88 82 -75 3 6 16 9 29 5 19 -4 24 0 34 34 40 132
-33 243 -133 203z m113 -74 c2 -19 -1 -27 -12 -27 -18 0 -35 29 -29 48 9 23
38 8 41 -21z"/>
<path d="M5268 1713 c7 -3 16 -2 19 1 4 3 -2 6 -13 5 -11 0 -14 -3 -6 -6z"/>
<path d="M2529 1699 c-10 -6 -7 -9 14 -9 29 0 35 5 14 13 -8 3 -20 1 -28 -4z"/>
<path d="M3146 1676 c-19 -45 -19 -46 -6 -46 6 0 10 8 10 18 0 10 5 23 11 29
6 6 9 17 7 25 -3 7 -12 -4 -22 -26z"/>
<path d="M2690 1686 c0 -9 111 -58 117 -52 3 3 -19 17 -51 31 -58 26 -66 28
-66 21z"/>
<path d="M5210 1676 c0 -8 5 -18 10 -21 6 -3 10 3 10 14 0 12 -4 21 -10 21 -5
0 -10 -6 -10 -14z"/>
<path d="M7500 1684 c0 -6 15 -25 34 -43 23 -22 32 -39 29 -52 -5 -19 -7 -18
-50 7 -37 21 -53 25 -86 20 -54 -8 -88 -29 -37 -23 42 5 122 -17 140 -38 7 -9
21 -13 31 -10 24 8 36 -17 55 -117 10 -54 13 -102 9 -142 -9 -72 -14 -88 -59
-194 -36 -87 -74 -140 -165 -230 -34 -35 -46 -52 -33 -48 17 6 24 1 36 -28 19
-46 60 -71 113 -70 42 1 43 0 27 -18 -30 -32 -93 -19 -138 29 l-26 28 0 -40
c-1 -108 -102 -453 -156 -529 -8 -11 -14 -28 -14 -37 0 -16 44 -17 568 -18
482 -1 573 1 598 13 44 23 181 166 198 208 9 20 20 39 26 43 5 3 10 25 10 48
0 30 3 38 10 27 6 -10 9 -6 8 17 -1 17 4 44 9 60 6 15 16 53 23 85 14 60 5
120 -26 181 -9 16 -22 49 -29 73 l-13 44 32 14 c18 8 67 27 109 42 42 16 77
34 77 39 0 6 16 21 35 34 19 13 33 27 30 31 -3 4 2 10 10 14 8 3 15 12 15 21
0 8 4 15 8 15 5 0 15 12 23 28 8 15 18 30 24 34 18 13 -1 17 -40 8 -22 -5
-114 -9 -205 -8 l-165 2 135 6 135 6 -162 1 c-147 1 -165 3 -196 22 -19 11
-45 21 -58 22 -20 0 -21 2 -6 8 15 5 11 10 -20 23 -21 9 -49 22 -63 28 -14 6
-43 22 -65 35 -22 14 -50 25 -63 25 -13 0 -21 4 -18 8 3 5 -3 8 -12 8 -55 0
-76 5 -63 13 10 7 8 10 -10 16 -13 4 -51 20 -84 35 -33 16 -94 34 -135 40
-117 18 -145 27 -195 69 -26 21 -59 44 -73 52 -15 7 -42 26 -59 43 -18 16 -33
25 -33 20z m447 -220 c-3 -3 -12 -4 -19 -1 -8 3 -5 6 6 6 11 1 17 -2 13 -5z
m-439 -627 c2 -10 -3 -17 -12 -17 -10 0 -16 9 -16 21 0 24 23 21 28 -4z m652
-226 c0 -12 -21 -19 -37 -13 -22 8 -14 22 12 22 14 0 25 -4 25 -9z m104 -29
c2 -4 -8 -25 -22 -46 -51 -73 -135 -95 -212 -56 -30 16 -40 26 -40 45 0 30 14
32 32 7 20 -29 52 -42 101 -42 48 0 77 22 96 73 10 25 34 36 45 19z"/>
<path d="M6197 1666 c-3 -8 2 -16 14 -19 11 -3 19 -14 19 -27 0 -32 22 -100
32 -100 5 0 14 11 20 25 6 14 18 24 27 23 11 -2 17 6 19 26 3 26 1 28 -21 22
-20 -5 -31 1 -56 29 -33 38 -46 43 -54 21z"/>
<path d="M1615 1641 c-38 -12 -85 -42 -85 -53 0 -6 8 -4 18 5 10 10 26 17 35
17 9 0 19 5 22 10 3 6 22 10 41 10 21 0 33 4 29 10 -7 11 -29 12 -60 1z"/>
<path d="M4830 1634 c0 -7 8 -14 18 -14 10 0 28 -7 40 -16 13 -9 26 -13 29
-10 9 9 -7 22 -49 40 -33 13 -38 13 -38 0z"/>
<path d="M1690 1630 c0 -5 5 -10 11 -10 5 0 7 5 4 10 -3 6 -8 10 -11 10 -2 0
-4 -4 -4 -10z"/>
<path d="M2240 1633 c-8 -3 -26 -10 -39 -15 -13 -5 -22 -11 -19 -13 3 -3 25 3
49 14 40 18 46 28 9 14z"/>
<path d="M3925 1609 c-26 -23 -40 -48 -56 -101 l-21 -69 23 -26 c64 -68 181
-85 252 -36 44 30 77 88 77 132 0 37 -51 98 -97 117 -18 8 -57 14 -87 14 -48
0 -60 -4 -91 -31z m33 -39 c-18 -35 -18 -45 -8 -97 8 -37 21 -68 38 -85 21
-23 23 -28 9 -28 -10 0 -35 11 -57 25 -41 26 -46 40 -42 108 3 34 36 103 54
110 25 10 25 7 6 -33z m172 15 c17 -20 5 -45 -20 -45 -23 0 -35 22 -26 45 7
19 30 19 46 0z"/>
<path d="M338 1623 c7 -3 16 -2 19 1 4 3 -2 6 -13 5 -11 0 -14 -3 -6 -6z"/>
<path d="M375 1620 c3 -5 14 -10 23 -10 10 0 46 -30 80 -66 34 -36 62 -60 62
-53 0 22 -127 139 -150 139 -12 0 -18 -4 -15 -10z"/>
<path d="M2830 1620 c8 -5 22 -10 30 -10 13 0 13 1 0 10 -8 5 -22 10 -30 10
-13 0 -13 -1 0 -10z"/>
<path d="M2636 1613 c-4 -4 19 -13 51 -20 61 -12 82 -10 42 5 -42 16 -85 23
-93 15z"/>
<path d="M2915 1594 c60 -23 75 -27 75 -20 0 11 -60 36 -87 36 -26 -1 -25 -2
12 -16z"/>
<path d="M7190 1603 c-26 -10 -52 -37 -72 -77 -29 -57 -17 -157 28 -234 1 -2
12 6 23 17 13 13 34 21 56 21 45 0 98 46 120 105 15 39 16 49 3 101 -12 47
-20 60 -39 65 -29 8 -99 9 -119 2z m65 -33 c0 -8 -10 -16 -22 -18 -22 -3 -32
16 -16 32 12 11 38 2 38 -14z m-71 -180 c15 -17 36 -30 47 -30 10 0 19 -4 19
-10 0 -5 -20 -10 -45 -10 -35 0 -47 5 -59 23 -20 31 -29 82 -20 109 7 21 9 20
19 -15 6 -21 23 -51 39 -67z"/>
<path d="M1925 1580 c7 -12 113 -12 170 -1 31 7 17 9 -68 10 -70 1 -106 -3
-102 -9z"/>
<path d="M4482 1570 c0 -14 2 -19 5 -12 2 6 2 18 0 25 -3 6 -5 1 -5 -13z"/>
<path d="M4755 1560 c-14 -27 -14 -30 4 -40 21 -11 54 -3 45 11 -3 5 6 9 20 9
14 0 28 5 31 10 12 19 -16 40 -51 40 -27 0 -36 -6 -49 -30z"/>
<path d="M6071 1581 c-7 -5 -17 -31 -21 -57 -5 -27 -12 -58 -16 -69 -7 -20 -7
-20 14 -1 12 11 22 27 22 37 0 10 14 27 30 39 33 24 39 45 14 54 -20 8 -26 7
-43 -3z"/>
<path d="M2790 1552 c19 -15 70 -60 114 -99 43 -40 87 -73 97 -73 18 0 59 44
59 63 0 6 8 20 18 31 10 12 23 38 30 59 10 38 10 39 -9 21 -10 -9 -19 -25 -19
-35 0 -10 -6 -22 -13 -26 -7 -4 -23 -25 -36 -45 l-22 -37 -42 26 c-23 14 -63
45 -88 68 -43 40 -98 76 -116 75 -4 -1 8 -13 27 -28z"/>
<path d="M1840 1560 c-13 -9 -13 -10 0 -10 8 0 22 5 30 10 13 9 13 10 0 10 -8
0 -22 -5 -30 -10z"/>
<path d="M3035 1560 c3 -5 11 -10 16 -10 6 0 7 5 4 10 -3 6 -11 10 -16 10 -6
0 -7 -4 -4 -10z"/>
<path d="M5861 1556 c-11 -13 -11 -20 -3 -28 8 -8 13 -7 18 5 10 27 0 41 -15
23z"/>
<path d="M1453 1518 c-22 -24 -45 -51 -50 -61 -5 -10 -44 -53 -86 -96 -54 -55
-87 -80 -109 -85 -18 -3 -53 -16 -77 -28 -29 -14 -75 -24 -126 -28 -75 -6 -86
-4 -169 27 -48 19 -91 32 -94 29 -7 -8 -8 -8 93 -49 77 -32 101 -37 166 -37
72 0 76 -1 87 -25 17 -37 15 -59 -8 -80 -20 -18 -29 -85 -12 -85 19 0 68 141
75 213 1 9 7 17 14 17 7 0 13 5 13 10 0 6 9 10 20 10 12 0 33 7 48 14 32 17
161 152 212 221 19 26 41 53 48 61 7 8 10 14 5 14 -5 0 -27 -19 -50 -42z"/>
<path d="M5316 1524 c-4 -15 -2 -32 3 -37 8 -8 11 -7 11 4 0 7 3 24 6 37 4 12
2 22 -4 22 -5 0 -13 -12 -16 -26z"/>
<path d="M1790 1530 c-18 -10 -207 -201 -243 -245 -34 -42 -40 -68 -28 -128
10 -48 9 -58 -18 -128 -16 -42 -32 -97 -36 -122 -7 -48 -22 -59 -44 -33 -6 7
-32 16 -58 20 -113 15 -233 -96 -233 -216 0 -36 -10 -58 -25 -58 -18 0 -28
-30 -15 -46 9 -10 15 -9 31 7 24 24 51 24 119 -2 74 -28 140 -22 180 16 35 34
60 28 60 -14 0 -16 23 -79 50 -140 27 -61 50 -114 50 -118 0 -13 133 -149 158
-162 37 -20 25 5 -26 51 -26 23 -57 57 -69 74 -39 55 -133 247 -133 272 0 12
-6 35 -14 51 -25 47 -31 187 -12 271 20 87 71 213 93 232 9 7 36 54 60 103 24
50 64 113 88 140 47 52 53 75 9 34 -47 -43 -114 -138 -140 -195 -25 -57 -46
-67 -52 -24 -6 39 7 84 36 120 48 61 205 220 224 226 10 3 18 10 18 15 0 11
-10 11 -30 -1z m-554 -729 c-22 -41 -20 -107 4 -160 11 -24 18 -46 16 -48 -8
-8 -65 27 -80 49 -22 31 -20 66 5 113 22 42 60 88 66 81 3 -2 -3 -18 -11 -35z
m182 5 c-4 -25 -43 -34 -51 -12 -8 20 19 47 39 39 8 -3 14 -15 12 -27z"/>
<path d="M5392 1515 c0 -16 2 -22 5 -12 2 9 2 23 0 30 -3 6 -5 -1 -5 -18z"/>
<path d="M5890 1531 c0 -11 26 -22 34 -14 12 12 5 23 -14 23 -11 0 -20 -4 -20
-9z"/>
<path d="M5180 1504 c0 -8 5 -12 10 -9 6 3 10 10 10 16 0 5 -4 9 -10 9 -5 0
-10 -7 -10 -16z"/>
<path d="M4502 1500 c0 -8 4 -26 8 -40 6 -20 8 -21 8 -5 0 11 -3 29 -8 40 -5
12 -8 14 -8 5z"/>
<path d="M457 1483 c4 -10 28 -55 54 -101 55 -96 69 -134 66 -182 -3 -45 23
-48 35 -5 9 36 -8 85 -56 159 -19 28 -35 56 -37 61 -2 6 -15 27 -29 47 -26 39
-44 50 -33 21z"/>
<path d="M1495 1487 c-32 -35 -82 -117 -92 -152 -20 -64 2 -62 35 4 17 34 40
77 52 96 22 35 25 74 5 52z"/>
<path d="M6105 1480 c-3 -5 -1 -10 4 -10 6 0 11 5 11 10 0 6 -2 10 -4 10 -3 0
-8 -4 -11 -10z"/>
<path d="M6485 1470 c-11 -5 -39 -26 -63 -48 -40 -37 -48 -41 -118 -47 -87 -9
-122 -31 -147 -94 -9 -22 -21 -42 -27 -46 -12 -7 -14 -92 -2 -99 12 -7 83 91
103 144 21 55 58 80 130 85 32 3 56 10 61 18 4 8 26 24 48 36 44 23 46 19 29
-42 -9 -33 -7 -45 14 -92 14 -29 35 -58 46 -64 28 -16 27 -34 -1 -25 -51 16
-99 58 -121 105 -21 47 -37 63 -37 37 1 -34 42 -100 80 -127 80 -58 147 -63
232 -20 30 15 50 19 76 14 31 -6 34 -4 28 12 -41 111 -56 141 -89 178 -48 56
-109 85 -173 84 -27 0 -58 -4 -69 -9z m175 -45 c15 -18 5 -35 -20 -35 -23 0
-32 13 -24 34 8 20 28 21 44 1z"/>
<path d="M566 1433 c52 -71 131 -143 156 -142 l23 0 -22 9 c-12 5 -39 27 -60
49 -21 23 -44 41 -50 41 -7 0 -13 8 -13 18 0 18 -38 62 -54 62 -4 0 5 -17 20
-37z"/>
<path d="M3091 1418 c-2 -42 19 -125 48 -198 28 -68 150 -253 178 -269 14 -7
16 -29 14 -142 -1 -74 -7 -152 -13 -174 -16 -61 -59 -164 -90 -217 -34 -60
-23 -63 14 -5 39 62 98 230 98 280 0 23 7 55 15 71 10 19 14 50 11 97 -3 67
-4 69 -63 136 -61 70 -111 146 -131 198 -6 17 -22 62 -37 100 -14 39 -30 88
-35 110 -6 31 -8 34 -9 13z"/>
<path d="M2584 1404 c-36 -13 -45 -23 -67 -72 -34 -77 -41 -116 -27 -156 16
-49 40 -66 114 -79 81 -14 167 1 204 35 39 37 65 96 58 137 -3 19 -1 40 4 47
8 8 -13 22 -74 52 -98 47 -154 56 -212 36z m214 -80 c37 -31 42 -41 42 -77 0
-47 -27 -99 -60 -117 -31 -17 -36 -5 -17 35 26 54 22 121 -9 162 -34 45 -10
44 44 -3z m-164 17 c9 -14 -3 -39 -22 -46 -21 -8 -44 17 -36 38 6 18 49 23 58
8z"/>
<path d="M5374 1398 l-19 -23 23 19 c21 18 27 26 19 26 -2 0 -12 -10 -23 -22z"/>
<path d="M4622 1385 c-6 -14 -7 -25 -2 -25 9 0 25 39 18 46 -3 2 -10 -7 -16
-21z"/>
<path d="M4606 1323 c-6 -14 -5 -15 5 -6 7 7 10 15 7 18 -3 3 -9 -2 -12 -12z"/>
<path d="M5101 1283 c1 -48 3 -53 9 -28 11 45 11 85 0 85 -6 0 -9 -25 -9 -57z"/>
<path d="M1945 1266 c-59 -22 -91 -49 -132 -110 -47 -69 -51 -78 -27 -74 11 2
24 -10 36 -32 10 -19 32 -47 49 -62 27 -26 36 -28 108 -28 78 0 79 0 130 43
32 27 51 50 51 64 0 44 -90 172 -140 198 -33 17 -34 17 -75 1z m13 -78 c-4
-31 -48 -39 -48 -10 0 20 12 30 38 31 8 1 12 -8 10 -21z m148 -65 c22 -51 17
-79 -18 -112 -18 -17 -41 -31 -51 -31 -16 0 -16 2 -3 23 25 38 35 121 19 157
-7 18 -13 35 -13 38 0 15 54 -47 66 -75z"/>
<path d="M4571 1247 c-16 -41 -13 -57 5 -24 8 16 13 34 11 40 -3 7 -10 -1 -16
-16z"/>
<path d="M3580 1240 c0 -15 26 -23 46 -16 20 8 17 11 -18 20 -17 4 -28 2 -28
-4z"/>
<path d="M4502 1210 c-33 -109 -142 -256 -243 -326 -22 -15 -37 -29 -35 -31
11 -11 71 33 143 105 66 66 84 91 116 166 21 48 37 97 35 109 -2 16 -7 10 -16
-23z"/>
<path d="M4900 1199 c-44 -27 -43 -26 -35 -38 4 -7 22 -2 52 14 53 28 74 23
44 -9 -29 -31 -38 -104 -17 -144 9 -18 12 -32 7 -32 -19 0 -51 59 -57 104 -7
50 -24 53 -24 4 0 -44 35 -113 64 -126 46 -21 90 -23 135 -8 24 9 45 16 47 16
1 0 1 -15 -2 -32 -3 -18 0 -40 5 -48 9 -13 12 -13 26 1 14 14 14 25 0 119 -17
113 -39 161 -85 185 -43 22 -118 19 -160 -6z m171 -39 c21 -12 26 -46 7 -53
-31 -11 -64 34 -41 56 8 9 11 9 34 -3z"/>
<path d="M8843 1213 c9 -2 23 -2 30 0 6 3 -1 5 -18 5 -16 0 -22 -2 -12 -5z"/>
<path d="M840 1193 c0 -5 4 -14 9 -22 6 -9 4 -23 -6 -38 -13 -19 -13 -28 -3
-53 7 -16 18 -34 25 -40 22 -18 28 24 10 60 -17 33 -12 71 8 65 7 -2 24 -6 40
-9 20 -5 27 -12 27 -31 0 -13 5 -27 10 -30 6 -3 10 -2 10 4 0 5 16 26 37 46
l36 35 -81 0 c-44 0 -84 5 -87 10 -7 12 -35 14 -35 3z"/>
<path d="M5583 1145 c-48 -22 -85 -77 -91 -134 l-4 -48 60 -37 c86 -52 126
-50 185 9 34 34 47 55 52 87 4 24 13 46 19 51 7 5 5 12 -9 23 -68 53 -157 74
-212 49z m121 -21 c22 -9 20 -31 -4 -39 -26 -8 -40 1 -40 26 0 19 15 24 44 13z
m-146 -64 c-8 -32 -7 -49 5 -80 17 -44 8 -52 -31 -24 -28 19 -28 53 -2 104 26
52 41 51 28 0z"/>
<path d="M6355 1150 c3 -5 11 -10 16 -10 6 0 7 5 4 10 -3 6 -11 10 -16 10 -6
0 -7 -4 -4 -10z"/>
<path d="M6410 1144 c0 -5 10 -22 23 -37 18 -22 35 -30 90 -39 44 -7 71 -8 78
-1 11 11 -5 19 -96 50 -33 12 -68 24 -77 28 -10 4 -18 3 -18 -1z"/>
<path d="M4683 1118 c-18 -11 -33 -27 -33 -36 0 -12 3 -13 12 -4 7 7 19 12 28
12 8 1 38 12 65 25 l50 24 -45 0 c-27 -1 -58 -9 -77 -21z"/>
<path d="M4590 1045 c0 -10 7 -15 18 -13 21 4 19 22 -2 26 -10 2 -16 -3 -16
-13z"/>
<path d="M708 1016 c-22 -16 -23 -65 -4 -92 20 -27 32 -10 39 54 6 55 -2 64
-35 38z"/>
<path d="M261 981 c-6 -23 -20 -45 -30 -51 -15 -8 -41 -57 -41 -77 0 -9 26 23
39 49 8 15 22 37 33 47 10 11 18 25 18 30 0 5 9 13 20 16 11 3 20 11 20 16 0
13 -18 11 -23 -3 -4 -10 -7 -10 -15 0 -6 9 -12 1 -21 -27z"/>
<path d="M7095 1010 c-3 -5 -1 -10 4 -10 6 0 11 5 11 10 0 6 -2 10 -4 10 -3 0
-8 -4 -11 -10z"/>
<path d="M1185 989 c-9 -26 3 -111 14 -104 12 7 23 88 15 108 -8 23 -21 21
-29 -4z"/>
<path d="M4780 994 c0 -13 54 -104 62 -104 12 0 10 14 -4 28 -8 8 -8 15 1 25
9 11 8 17 -1 24 -22 17 -58 34 -58 27z"/>
<path d="M7077 969 c4 -16 8 -17 14 -7 13 19 11 28 -5 28 -9 0 -12 -7 -9 -21z"/>
<path d="M4500 966 c0 -9 5 -16 10 -16 6 0 10 4 10 9 0 6 -4 13 -10 16 -5 3
-10 -1 -10 -9z"/>
<path d="M6132 940 c0 -19 2 -27 5 -17 2 9 2 25 0 35 -3 9 -5 1 -5 -18z"/>
<path d="M2375 946 c-19 -8 -25 -15 -17 -20 7 -4 16 -5 21 -2 5 4 12 0 14 -6
3 -8 6 -6 6 5 1 10 5 16 10 12 5 -3 12 -1 15 4 10 15 -18 19 -49 7z"/>
<path d="M508 906 c-16 -14 -28 -33 -28 -42 0 -15 4 -14 25 6 31 29 41 21 21
-18 -29 -56 -30 -102 -3 -155 21 -40 22 -48 8 -45 -25 5 -63 87 -57 126 6 43
-11 41 -20 -3 -7 -40 25 -118 60 -140 18 -12 175 -33 199 -27 4 1 7 -3 7 -8 0
-6 9 -10 20 -10 22 0 27 16 8 23 -9 2 -13 29 -13 88 0 136 -52 211 -155 225
-39 5 -49 3 -72 -20z m152 -61 c16 -19 6 -45 -19 -45 -21 0 -33 22 -25 45 8
19 28 19 44 0z"/>
<path d="M7090 900 c0 -11 4 -20 9 -20 5 0 7 9 4 20 -3 11 -7 20 -9 20 -2 0
-4 -9 -4 -20z"/>
<path d="M269 875 c-28 -14 -62 -45 -88 -79 -23 -31 -46 -56 -51 -56 -13 0
-52 -68 -45 -80 4 -6 12 -7 18 -3 7 4 22 6 34 5 16 -3 39 14 81 55 33 32 67
70 76 84 9 14 34 32 56 39 46 15 70 37 49 44 -51 16 -86 14 -130 -9z"/>
<path d="M3390 890 c0 -5 5 -10 11 -10 5 0 7 5 4 10 -3 6 -8 10 -11 10 -2 0
-4 -4 -4 -10z"/>
<path d="M147 835 c-4 -8 -2 -17 3 -20 6 -4 10 -4 10 -1 0 2 3 11 6 20 3 9 2
16 -4 16 -5 0 -12 -7 -15 -15z"/>
<path d="M2407 778 c-3 -8 5 -13 22 -13 14 -1 37 -4 51 -8 14 -4 7 2 -15 12
-49 24 -52 24 -58 9z"/>
<path d="M6140 775 c20 -25 165 -92 215 -99 l40 -7 -40 16 c-22 9 -78 35 -125
58 -111 54 -107 53 -90 32z"/>
<path d="M86 758 c-8 -13 -31 -58 -51 -100 -31 -68 -35 -86 -35 -158 0 -59 4
-86 15 -96 13 -13 14 -12 10 13 -14 91 -14 126 0 160 8 19 15 46 15 58 0 13 6
25 14 28 8 3 22 26 31 51 10 25 22 46 26 46 5 0 9 5 9 10 0 18 -19 11 -34 -12z"/>
<path d="M806 763 c-4 -9 -2 -21 4 -27 7 -7 10 -2 10 17 0 31 -5 34 -14 10z"/>
<path d="M7005 757 c-92 -31 -224 -115 -285 -183 -30 -33 -12 -24 57 31 129
101 238 150 322 142 31 -2 65 -7 76 -11 11 -4 7 0 -8 9 -38 22 -114 27 -162
12z"/>
<path d="M5303 753 c-35 -4 -43 -17 -19 -26 8 -3 18 -23 22 -44 l8 -38 9 38
c5 20 18 42 28 48 10 5 19 14 19 19 0 10 -7 10 -67 3z"/>
<path d="M300 677 c0 -18 5 -38 11 -44 7 -7 12 -22 13 -34 1 -32 24 -35 32 -5
3 14 11 26 16 26 22 0 78 -33 78 -46 0 -8 5 -14 10 -14 33 0 -25 65 -72 82
-16 6 -28 16 -28 23 0 11 -41 45 -55 45 -3 0 -5 -15 -5 -33z"/>
<path d="M4541 684 c0 -11 3 -14 6 -6 3 7 2 16 -1 19 -3 4 -6 -2 -5 -13z"/>
<path d="M6072 628 c-11 -18 -22 -46 -25 -63 -6 -29 -6 -29 9 5 9 19 25 47 36
62 10 16 15 28 9 28 -5 0 -18 -15 -29 -32z"/>
<path d="M7154 609 c-3 -6 -17 -8 -30 -5 -14 4 -24 2 -24 -4 0 -16 46 -12 60
5 7 8 10 15 7 15 -3 0 -9 -5 -13 -11z"/>
<path d="M701 574 c0 -11 3 -14 6 -6 3 7 2 16 -1 19 -3 4 -6 -2 -5 -13z"/>
<path d="M3392 550 c0 -14 2 -19 5 -12 2 6 2 18 0 25 -3 6 -5 1 -5 -13z"/>
<path d="M7170 559 c0 -5 5 -7 10 -4 6 3 10 8 10 11 0 2 -4 4 -10 4 -5 0 -10
-5 -10 -11z"/>
<path d="M432 538 c-29 -14 -27 -53 3 -53 14 0 21 9 26 33 7 35 5 36 -29 20z"/>
<path d="M1399 499 c-12 -12 -27 -18 -37 -14 -29 11 -142 -6 -142 -21 0 -8 8
-14 18 -14 10 0 23 -5 28 -10 15 -15 126 -17 155 -3 13 6 32 14 42 17 26 8 22
52 -5 60 -34 9 -36 8 -59 -15z"/>
<path d="M3402 490 c0 -19 2 -27 5 -17 2 9 2 25 0 35 -3 9 -5 1 -5 -18z"/>
<path d="M4626 493 c-6 -14 -5 -15 5 -6 7 7 10 15 7 18 -3 3 -9 -2 -12 -12z"/>
<path d="M1030 481 c0 -19 17 -38 25 -29 7 7 -7 48 -16 48 -5 0 -9 -9 -9 -19z"/>
<path d="M4860 470 c0 -5 5 -10 11 -10 5 0 7 5 4 10 -3 6 -8 10 -11 10 -2 0
-4 -4 -4 -10z"/>
<path d="M5945 470 c-3 -6 1 -7 9 -4 18 7 21 14 7 14 -6 0 -13 -4 -16 -10z"/>
<path d="M4607 413 c-4 -3 -7 -13 -7 -22 1 -13 3 -13 11 2 11 19 8 33 -4 20z"/>
<path d="M520 395 c-11 -13 -10 -14 4 -9 9 3 16 10 16 15 0 13 -6 11 -20 -6z"/>
<path d="M210 389 c0 -5 5 -7 10 -4 6 3 10 8 10 11 0 2 -4 4 -10 4 -5 0 -10
-5 -10 -11z"/>
<path d="M273 393 c-18 -2 -33 -8 -33 -13 0 -13 39 -37 72 -45 29 -7 168 30
168 45 0 4 -24 8 -52 8 -29 0 -69 2 -88 5 -19 2 -50 3 -67 0z"/>
<path d="M1420 373 c-14 -10 -52 -25 -85 -33 -53 -13 -60 -18 -60 -39 0 -22 4
-24 51 -24 52 1 57 3 122 66 42 41 20 64 -28 30z"/>
<path d="M3785 355 c-106 -32 -184 -60 -140 -52 61 13 221 60 244 72 38 20 20
17 -104 -20z"/>
<path d="M790 371 c0 -6 16 -22 35 -36 24 -19 37 -38 42 -63 l7 -37 8 40 c6
30 16 46 39 59 23 13 28 21 20 29 -14 14 -151 21 -151 8z"/>
<path d="M4586 333 c-6 -14 -5 -15 5 -6 7 7 10 15 7 18 -3 3 -9 -2 -12 -12z"/>
<path d="M2614 300 c-59 -31 -193 -145 -182 -155 3 -3 29 19 59 48 100 100
233 147 327 114 23 -8 42 -11 42 -6 0 13 -70 29 -131 29 -43 0 -70 -7 -115
-30z"/>
<path d="M2994 315 c-25 -19 -15 -19 27 0 25 10 29 14 13 15 -11 0 -29 -7 -40
-15z"/>
<path d="M655 301 c-8 -15 3 -31 21 -31 9 0 14 7 12 17 -4 20 -24 28 -33 14z"/>
<path d="M1034 298 c-9 -14 32 -26 66 -19 55 11 48 29 -10 28 -29 -1 -54 -5
-56 -9z"/>
<path d="M4571 294 c0 -11 3 -14 6 -6 3 7 2 16 -1 19 -3 4 -6 -2 -5 -13z"/>
<path d="M2946 273 c-6 -14 -5 -15 5 -6 7 7 10 15 7 18 -3 3 -9 -2 -12 -12z"/>
<path d="M1527 257 c-3 -9 -2 -17 2 -19 4 -2 14 -16 22 -32 18 -37 41 -52 65
-41 11 4 22 8 25 7 4 -1 7 10 7 23 0 14 -4 25 -9 25 -4 0 -17 9 -27 20 -25 27
-77 37 -85 17z"/>
<path d="M4339 244 c-5 -15 -8 -29 -5 -31 2 -2 8 10 14 26 13 38 5 41 -9 5z"/>
<path d="M4562 243 c-1 -17 -5 -40 -8 -50 -5 -17 -5 -17 6 0 6 9 9 32 7 50
l-4 32 -1 -32z"/>
<path d="M5980 256 c0 -8 5 -18 10 -21 6 -3 10 1 10 9 0 8 -4 18 -10 21 -5 3
-10 -1 -10 -9z"/>
<path d="M1342 248 c7 -21 52 -47 90 -52 31 -5 40 -2 53 17 14 20 14 23 -2 34
-22 17 -146 18 -141 1z"/>
<path d="M2900 224 c0 -22 31 -72 48 -79 9 -3 7 6 -7 29 -12 18 -21 41 -21 50
0 9 -4 16 -10 16 -5 0 -10 -7 -10 -16z"/>
<path d="M2851 194 c0 -11 3 -14 6 -6 3 7 2 16 -1 19 -3 4 -6 -2 -5 -13z"/>
<path d="M3001 195 c-2 -50 10 -65 50 -65 22 0 39 5 39 10 0 6 -13 10 -29 10
-30 0 -46 13 -54 45 l-5 20 -1 -20z"/>
<path d="M5993 170 c0 -25 2 -35 4 -22 2 12 2 32 0 45 -2 12 -4 2 -4 -23z"/>
<path d="M3581 158 c-1 -16 4 -28 9 -28 12 0 12 8 0 35 -8 18 -9 17 -9 -7z"/>
</g>
</svg>
